{"glyphs":{"0":{"ha":738,"x_min":0,"x_max":704,"o":"m 350 768 q 275 732 302 768 q 235 633 246 694 q 224 481 224 567 q 235 330 224 395 q 275 230 247 266 q 350 193 302 193 q 481 481 481 193 q 350 768 481 768 m 350 985 q 524 939 453 985 q 633 819 594 893 q 688 658 672 745 q 704 481 704 570 q 673 245 704 359 q 564 54 643 131 q 350 -22 484 -22 q 180 24 250 -22 q 71 146 111 69 q 16 307 31 222 q 0 481 0 393 q 16 656 0 569 q 71 817 31 741 q 180 939 111 894 q 350 985 248 985 z "},"1":{"ha":369,"x_min":0,"x_max":335,"o":"m 1 798 l 0 960 l 335 960 l 335 -1 l 111 -1 l 111 795 l 1 798 z "},"2":{"ha":749,"x_min":0,"x_max":715,"o":"m 715 216 l 715 0 l 0 0 l 346 436 q 425 555 397 505 q 452 659 452 605 q 415 739 452 708 q 326 768 378 768 q 252 741 280 768 q 213 665 224 713 l 9 795 q 159 945 78 905 q 340 985 238 985 q 509 947 431 985 q 631 838 585 909 q 675 669 675 766 q 652 542 675 602 q 596 431 630 483 q 518 328 564 383 q 424 216 464 263 l 715 216 z "},"3":{"ha":736,"x_min":0,"x_max":703,"o":"m 4 802 q 152 939 61 893 q 350 985 242 985 q 504 951 435 985 q 617 854 574 918 q 659 703 659 788 q 637 598 659 643 q 568 513 616 555 q 640 455 609 490 q 686 376 669 420 q 703 286 703 332 q 672 147 703 205 q 587 51 640 87 q 467 -5 532 12 q 329 -22 400 -22 q 208 -3 267 -22 q 94 52 148 16 q 0 132 38 88 l 157 292 q 234 218 196 241 q 328 193 273 193 q 422 222 385 193 q 460 311 460 252 q 419 391 460 371 q 308 411 378 411 l 270 411 q 252 410 264 410 l 241 410 l 231 410 l 231 578 q 264 578 244 578 l 281 578 l 300 579 q 367 587 336 581 q 417 616 397 594 q 436 679 436 637 q 404 762 436 734 q 318 789 370 789 q 274 782 294 789 q 239 765 257 776 q 202 735 225 755 q 192 726 197 731 q 183 718 189 723 q 169 705 172 709 l 4 802 z "},"4":{"ha":765,"x_min":0,"x_max":731,"o":"m 731 574 l 611 574 l 611 962 l 386 962 l 386 574 l 225 574 l 225 962 l 0 962 l 1 378 l 386 378 l 386 -5 l 611 -6 l 611 380 l 730 380 l 731 574 z "},"5":{"ha":697,"x_min":0,"x_max":663,"o":"m 117 277 q 281 193 174 199 q 378 235 336 193 q 420 343 420 277 q 367 448 420 413 q 242 484 313 484 q 56 446 154 484 l 56 962 l 550 962 l 551 746 l 279 746 l 279 663 q 302 665 293 664 l 309 665 l 316 666 q 332 667 319 667 q 663 330 644 637 q 633 184 663 251 q 549 72 603 118 q 425 1 493 24 q 279 -22 355 -22 q 0 75 172 -29 l 117 277 z "},"6":{"ha":738,"x_min":0,"x_max":704,"o":"m 652 964 q 452 761 522 836 q 337 618 386 691 l 340 615 q 415 629 372 629 q 568 587 501 629 q 669 472 633 543 q 704 313 704 401 q 661 130 704 210 q 539 5 618 50 q 359 -38 460 -38 q 174 7 256 -38 q 45 133 92 51 q 0 324 0 215 q 99 646 0 494 q 362 964 197 796 l 652 964 m 223 311 q 241 245 223 275 q 288 197 258 214 q 354 178 318 178 q 444 217 407 178 q 480 311 480 256 q 464 378 480 347 q 418 427 448 409 q 354 446 389 446 q 261 406 298 446 q 223 311 223 366 z "},"7":{"ha":679,"x_min":0,"x_max":645,"o":"m 338 748 l 0 748 l 2 962 l 645 962 l 332 3 l 75 1 l 338 748 z "},"8":{"ha":730,"x_min":0,"x_max":696,"o":"m 473 288 q 452 347 473 317 q 342 415 431 377 q 248 349 271 378 q 224 285 224 319 q 258 206 224 238 q 339 174 292 174 q 435 203 398 174 q 473 288 473 232 m 249 703 q 349 607 249 670 q 423 661 406 636 q 441 715 441 684 q 339 789 441 789 q 275 764 301 789 q 249 703 249 739 m 25 700 q 50 827 25 774 q 122 916 76 881 q 229 968 168 951 q 356 985 289 985 q 576 910 487 985 q 664 701 664 835 q 635 590 664 644 q 560 507 608 537 q 663 405 629 460 q 696 268 696 350 q 666 144 696 200 q 586 52 637 91 q 473 -3 536 16 q 346 -22 412 -22 q 177 12 258 -22 q 49 113 98 45 q 0 268 0 179 q 37 399 0 337 q 134 498 75 461 q 25 700 25 576 z "},"9":{"ha":738,"x_min":0,"x_max":704,"o":"m 52 1 q 253 201 165 111 q 367 341 319 271 l 364 344 q 289 331 334 331 q 137 372 201 331 q 36 485 72 414 q 0 640 0 555 q 43 821 0 743 q 165 942 86 899 q 345 985 244 985 q 531 941 449 985 q 659 817 612 898 q 704 629 704 737 q 605 313 704 463 q 334 -1 508 166 l 52 1 m 481 643 q 463 708 481 678 q 416 755 446 737 q 350 772 386 772 q 260 734 297 772 q 224 643 224 697 q 240 577 224 609 q 286 528 256 545 q 350 511 315 511 q 443 549 406 511 q 481 643 481 589 z "},"\u0000":{"ha":835,"x_min":0,"x_max":0,"o":""},"\u001d":{"ha":835,"x_min":0,"x_max":0,"o":""}," ":{"ha":180,"x_min":0,"x_max":0,"o":""}," ":{"ha":180,"x_min":0,"x_max":0,"o":""},"!":{"ha":313,"x_min":0,"x_max":279,"o":"m 14 111 q 31 172 14 144 q 77 216 49 200 q 137 232 105 232 q 197 216 169 232 q 242 171 225 199 q 259 111 259 144 q 224 22 259 57 q 137 -14 188 -14 q 75 2 103 -14 q 31 47 47 18 q 14 111 14 77 m 34 300 l 0 963 l 279 963 l 245 300 l 34 300 z "},"\"":{"ha":454,"x_min":0,"x_max":0,"o":""},"#":{"ha":723,"x_min":0,"x_max":0,"o":""},"$":{"ha":564,"x_min":0,"x_max":0,"o":""},"%":{"ha":825,"x_min":0,"x_max":0,"o":""},"&":{"ha":747,"x_min":0,"x_max":0,"o":""},"'":{"ha":200,"x_min":0,"x_max":0,"o":""},"(":{"ha":417,"x_min":0,"x_max":0,"o":""},")":{"ha":417,"x_min":0,"x_max":0,"o":""},"*":{"ha":470,"x_min":0,"x_max":0,"o":""},"+":{"ha":727,"x_min":0,"x_max":0,"o":""},",":{"ha":273,"x_min":0,"x_max":0,"o":""},"-":{"ha":463,"x_min":0,"x_max":0,"o":""},"­":{"ha":463,"x_min":0,"x_max":0,"o":""},".":{"ha":279,"x_min":0,"x_max":245,"o":"m 0 107 q 17 168 0 140 q 62 212 35 196 q 123 228 91 228 q 183 212 155 228 q 228 167 211 195 q 245 107 245 140 q 210 18 245 53 q 123 -18 174 -18 q 61 -2 89 -18 q 16 43 33 14 q 0 107 0 73 z "},"/":{"ha":448,"x_min":0,"x_max":0,"o":""},":":{"ha":279,"x_min":0,"x_max":0,"o":""},";":{"ha":285,"x_min":0,"x_max":0,"o":""},";":{"ha":285,"x_min":0,"x_max":0,"o":""},"<":{"ha":880,"x_min":0,"x_max":0,"o":""},"=":{"ha":622,"x_min":0,"x_max":0,"o":""},">":{"ha":880,"x_min":0,"x_max":0,"o":""},"?":{"ha":652,"x_min":0,"x_max":0,"o":""},"@":{"ha":1560,"x_min":0,"x_max":0,"o":""},"A":{"ha":1094,"x_min":0,"x_max":1060,"o":"m 435 349 l 530 519 l 625 349 l 435 349 m 817 0 l 1060 0 l 530 976 l 0 0 l 243 0 l 338 171 l 722 171 l 817 0 z "},"B":{"ha":736,"x_min":0,"x_max":703,"o":"m 248 774 l 248 579 l 310 579 q 397 606 368 579 q 426 679 426 631 q 389 752 426 730 q 301 774 352 774 l 248 774 m 0 962 l 283 962 q 478 939 389 962 q 620 859 565 916 q 673 710 673 803 q 638 587 673 640 q 543 509 603 534 l 543 505 q 607 469 577 492 q 658 415 635 446 q 691 348 679 385 q 703 268 703 310 q 613 74 703 147 q 340 0 523 0 l 0 0 l 0 962 m 248 390 l 248 189 l 313 189 q 455 288 455 189 q 417 370 455 349 q 310 390 380 390 l 248 390 z "},"C":{"ha":849,"x_min":0,"x_max":815,"o":"m 660 292 q 602 237 633 258 q 475 197 543 197 q 348 237 406 197 q 255 343 290 277 q 220 481 220 410 q 254 620 220 553 q 347 726 289 686 q 475 766 407 766 q 602 726 543 766 q 659 673 629 708 l 814 834 q 712 918 769 883 q 475 985 604 985 q 237 918 347 985 q 64 735 127 850 q 0 481 0 620 q 64 229 0 344 q 237 46 127 114 q 475 -21 347 -21 q 712 46 604 -21 q 815 132 769 81 l 660 292 z "},"D":{"ha":886,"x_min":0,"x_max":852,"o":"m 0 1 l 0 963 l 344 963 q 542 926 450 963 q 704 825 633 890 q 813 671 772 762 q 852 481 852 583 q 813 293 852 380 q 704 139 772 203 q 541 37 634 74 q 344 1 449 1 l 0 1 m 245 758 l 245 203 l 322 203 q 433 226 380 203 q 525 288 486 248 q 586 377 565 328 q 607 481 607 426 q 585 587 607 534 q 526 675 563 638 q 434 736 489 712 q 322 758 380 758 l 245 758 z "},"E":{"ha":645,"x_min":0,"x_max":611,"o":"m 611 0 l 0 0 l 0 962 l 611 962 l 611 758 l 236 758 l 236 591 l 427 591 l 481 389 l 236 389 l 236 203 l 611 203 l 611 0 z "},"F":{"ha":616,"x_min":0,"x_max":583,"o":"m 0 1 l 0 962 l 583 962 l 583 758 l 236 758 l 236 592 l 427 592 l 481 389 l 236 389 l 236 1 l 0 1 z "},"G":{"ha":945,"x_min":0,"x_max":911,"o":"m 745 673 q 641 737 700 713 q 521 760 583 760 q 407 739 459 760 q 316 680 353 718 q 257 589 279 642 q 236 476 236 538 q 277 324 236 389 q 386 226 317 259 q 539 191 455 191 q 614 199 573 191 q 675 227 655 208 l 675 366 l 581 366 l 496 569 l 911 569 l 911 72 q 829 34 884 55 q 729 2 779 14 q 621 -19 683 -10 q 509 -27 562 -27 q 254 40 372 -27 q 68 223 136 108 q 0 476 0 338 q 68 730 0 613 q 254 913 136 844 q 509 980 372 980 q 646 964 576 980 q 775 918 714 949 q 884 845 838 886 l 745 673 z "},"H":{"ha":811,"x_min":0,"x_max":777,"o":"m 236 393 l 541 393 l 541 0 l 777 0 l 777 962 l 541 962 l 541 611 l 236 611 l 236 962 l 0 962 l 0 0 l 236 0 l 236 393 z "},"I":{"ha":270,"x_min":0,"x_max":236,"o":"m 0 962 l 236 962 l 236 0 l 0 1 l 0 962 z "},"J":{"ha":511,"x_min":0,"x_max":477,"o":"m 249 964 l 249 46 l 248 46 q 239 0 243 11 q 166 -111 218 -65 q 43 -176 115 -157 l 41 -176 l 39 -176 q 30 -178 34 -177 q 0 -182 16 -180 l 0 -389 q 101 -374 56 -385 q 328 -256 231 -342 q 460 -53 425 -169 q 476 36 473 -12 l 477 36 l 477 964 l 249 964 z "},"K":{"ha":797,"x_min":0,"x_max":763,"o":"m 226 432 l 226 1 l 0 1 l 0 963 l 226 963 l 226 504 l 507 963 l 761 963 l 457 467 l 763 1 l 508 1 l 226 432 z "},"L":{"ha":650,"x_min":0,"x_max":616,"o":"m 553 0 l 0 0 l 0 962 l 236 962 l 236 220 l 616 220 l 553 0 z "},"M":{"ha":930,"x_min":2,"x_max":899,"o":"m 441 599 l 2 975 l 2 -1 l 253 -1 l 254 447 l 441 261 l 644 454 l 644 0 l 899 -1 l 899 975 l 441 599 z "},"N":{"ha":883,"x_min":0,"x_max":849,"o":"m 849 -1 l 237 491 l 237 2 l 0 2 l 0 976 l 613 518 l 613 962 l 849 961 l 849 -1 z "},"O":{"ha":1050,"x_min":0,"x_max":1017,"o":"m 509 765 q 372 725 435 765 q 273 619 309 686 q 236 481 236 553 q 273 342 236 408 q 372 236 311 275 q 509 196 435 196 q 644 236 582 196 q 744 342 706 275 q 781 481 781 409 q 744 619 781 553 q 645 725 707 685 q 509 765 581 765 m 509 985 q 763 918 646 985 q 948 734 880 850 q 1017 481 1017 618 q 948 228 1017 343 q 763 45 880 112 q 509 -22 646 -22 q 254 45 372 -22 q 68 228 136 113 q 0 481 0 343 q 68 734 0 618 q 254 918 136 849 q 509 985 372 985 z "},"P":{"ha":709,"x_min":0,"x_max":675,"o":"m 0 0 l 0 962 l 288 962 q 452 947 384 962 q 571 897 521 932 q 648 802 621 862 q 675 654 675 741 q 648 527 675 583 q 573 431 621 471 q 458 369 524 390 q 319 347 391 347 l 237 347 l 237 0 l 0 0 m 237 758 l 237 551 l 304 551 q 405 578 370 551 q 439 656 439 605 q 405 732 439 705 q 304 758 370 758 l 237 758 z "},"Q":{"ha":1050,"x_min":0,"x_max":1017,"o":"m 645 734 q 744 629 706 696 q 781 490 781 562 q 744 351 781 418 q 644 245 707 286 q 509 205 581 205 q 372 245 435 205 q 273 351 310 286 q 236 490 236 418 q 273 629 236 563 q 372 734 309 694 q 509 774 435 774 q 645 734 581 774 m 73 -10 q 85 -54 77 -31 l 89 -64 q 485 -239 207 -340 l 624 -187 l 623 -186 q 734 -231 707 -165 l 734 -232 q 735 -234 734 -233 l 736 -237 l 737 -240 l 738 -243 l 739 -243 q 741 -289 746 -269 l 934 -218 q 922 -175 927 -190 l 918 -164 q 718 31 847 1 q 762 54 743 42 q 948 237 880 122 q 1017 490 1017 353 q 948 744 1017 629 q 762 927 879 860 q 509 994 646 994 q 254 927 372 994 q 68 744 137 859 q 0 490 0 627 q 68 237 0 354 q 252 55 136 122 l 73 -10 m 383 -41 l 384 -43 q 273 3 300 -64 l 273 3 l 272 6 l 271 9 l 270 12 l 269 14 l 269 14 q 264 49 262 32 q 465 -11 357 -3 l 383 -41 z "},"R":{"ha":771,"x_min":0,"x_max":737,"o":"m 236 489 q 335 503 296 489 q 395 549 373 516 q 416 629 416 580 q 372 731 416 704 q 236 758 326 758 l 236 489 m 0 2 l 0 962 l 268 962 q 469 932 382 962 q 604 837 555 903 q 652 665 652 770 q 610 517 652 588 q 498 421 569 448 l 737 1 l 461 1 l 239 432 l 236 432 l 236 2 l 0 2 z "},"S":{"ha":659,"x_min":0,"x_max":625,"o":"m 488 708 q 414 764 446 748 q 336 782 380 782 q 273 761 302 782 q 243 705 243 740 q 309 628 243 656 q 448 572 377 599 q 573 481 520 543 q 625 298 625 419 q 532 61 625 144 q 297 -22 440 -22 q 137 6 214 -22 q 0 92 59 35 l 127 273 q 288 196 189 196 q 365 218 328 196 q 401 282 401 240 q 334 361 401 332 q 264 390 304 374 l 229 404 l 193 419 q 69 509 121 449 q 18 688 18 569 q 62 846 18 779 q 178 949 106 913 q 330 985 249 985 q 476 956 404 985 q 604 873 549 926 l 488 708 z "},"T":{"ha":743,"x_min":0,"x_max":709,"o":"m 244 743 l 59 743 l 0 962 l 652 962 l 709 743 l 480 743 l 480 0 l 244 0 l 244 743 z "},"U":{"ha":825,"x_min":0,"x_max":791,"o":"m 791 962 l 791 334 q 738 144 791 224 q 592 20 685 62 q 378 -22 498 -22 q 180 14 264 -22 q 47 127 94 51 q 0 317 0 203 l 0 962 l 237 962 l 237 385 q 250 288 237 328 q 296 221 263 245 q 384 196 328 196 q 522 258 489 196 q 555 436 555 320 l 555 962 l 791 962 z "},"V":{"ha":966,"x_min":0,"x_max":932,"o":"m 214 962 l 0 962 l 466 -25 l 932 962 l 720 962 l 466 458 l 214 962 z "},"W":{"ha":1279,"x_min":0,"x_max":1245,"o":"m 237 962 l 374 500 l 614 960 l 850 492 l 994 962 l 1245 962 l 883 -21 l 878 -21 l 616 488 l 336 -21 l 332 -21 l 0 962 l 237 962 z "},"X":{"ha":960,"x_min":0,"x_max":926,"o":"m 0 -1 l 322 498 l 9 961 l 269 960 l 464 677 l 655 960 l 926 962 l 598 501 l 924 -1 l 663 -1 l 458 309 l 244 -1 l 0 -1 z "},"Y":{"ha":882,"x_min":0,"x_max":848,"o":"m 848 962 l 574 962 l 425 678 l 276 962 l 0 962 l 302 444 l 302 0 l 552 0 l 552 446 l 848 962 z "},"Z":{"ha":880,"x_min":0,"x_max":846,"o":"m 460 743 l 131 743 l 62 962 l 846 962 l 389 220 l 806 220 l 807 0 l 0 0 l 460 743 z "},"[":{"ha":322,"x_min":0,"x_max":0,"o":""},"\\":{"ha":573,"x_min":0,"x_max":0,"o":""},"]":{"ha":322,"x_min":0,"x_max":0,"o":""},"^":{"ha":498,"x_min":0,"x_max":0,"o":""},"_":{"ha":488,"x_min":0,"x_max":0,"o":""},"`":{"ha":332,"x_min":0,"x_max":0,"o":""},"a":{"ha":829,"x_min":0,"x_max":795,"o":"m 241 439 q 309 503 267 479 q 397 526 351 526 q 487 503 446 526 q 554 439 529 479 q 579 351 579 399 q 525 227 579 279 q 397 176 471 176 q 271 227 324 176 q 216 351 216 279 q 241 439 216 399 m 580 0 l 795 -2 l 795 351 q 764 499 795 431 q 675 617 732 566 q 548 694 621 667 q 397 722 475 722 q 247 694 319 722 q 119 617 174 667 q 32 499 64 567 q 0 351 0 431 q 55 161 0 246 q 201 28 109 77 q 397 -20 294 -20 q 548 7 476 -20 q 580 20 558 11 l 580 0 z "},"b":{"ha":829,"x_min":0,"x_max":795,"o":"m 216 351 q 271 226 216 278 q 397 174 324 174 q 525 226 471 174 q 579 351 579 278 q 554 437 579 398 q 487 501 529 477 q 397 525 446 525 q 309 501 351 525 q 241 437 267 477 q 216 351 216 398 m 0 966 l 216 967 l 216 681 l 232 688 l 248 694 q 397 721 321 721 q 548 694 475 721 q 676 616 619 668 q 764 498 732 566 q 795 351 795 429 q 764 203 795 270 q 676 83 733 136 q 548 5 618 31 q 397 -22 477 -22 q 201 26 294 -22 q 55 159 109 75 q 0 346 1 243 l 0 966 z "},"c":{"ha":688,"x_min":0,"x_max":654,"o":"m 534 485 q 471 522 505 509 q 395 534 435 534 q 269 486 320 534 q 216 366 216 437 q 239 267 216 311 q 303 197 260 222 q 399 170 345 170 q 536 221 479 170 l 654 71 q 583 22 629 43 q 486 -9 536 1 q 395 -19 437 -19 q 186 31 277 -19 q 48 162 96 81 q 0 339 0 245 q 29 495 0 425 q 111 617 59 566 q 237 695 163 667 q 395 723 310 723 q 530 701 464 723 q 647 638 596 679 l 534 485 z "},"d":{"ha":829,"x_min":0,"x_max":795,"o":"m 579 351 q 554 437 579 398 q 487 501 529 477 q 398 525 446 525 q 309 501 351 525 q 241 437 267 477 q 216 351 216 398 q 271 226 216 278 q 398 174 324 174 q 525 226 471 174 q 579 351 579 278 m 795 346 q 741 159 795 243 q 594 26 686 75 q 398 -22 502 -22 q 248 5 319 -22 q 119 83 177 31 q 31 203 62 136 q 0 351 0 270 q 32 498 0 429 q 119 616 63 566 q 248 694 176 668 q 398 721 321 721 q 548 694 475 721 l 564 688 l 579 681 l 579 967 l 795 966 l 795 346 z "},"e":{"ha":796,"x_min":0,"x_max":762,"o":"m 381 526 q 467 503 427 526 q 514 460 491 488 l 248 460 q 296 503 271 488 q 381 526 336 526 m 732 498 q 648 617 701 568 q 525 694 593 668 q 381 722 456 722 q 237 694 307 722 q 115 616 169 668 q 31 498 61 566 q 0 352 0 431 q 53 161 0 246 q 193 28 104 77 q 381 -20 280 -20 q 525 7 456 -20 q 627 68 576 28 l 510 235 l 509 233 l 507 231 l 505 229 l 503 227 q 381 176 452 176 q 259 227 311 176 q 210 326 218 269 l 676 326 l 676 327 l 760 327 l 762 338 q 762 346 762 342 l 762 352 q 732 498 762 430 z "},"f":{"ha":508,"x_min":-3,"x_max":471,"o":"m 117 695 q 160 889 117 821 q 282 988 203 956 q 469 1019 359 1019 l 471 819 q 361 795 389 819 q 333 695 333 769 l 418 695 l 466 509 l 333 509 l 333 1 l 117 1 l 117 509 l 45 509 l -3 695 l 117 695 z "},"g":{"ha":791,"x_min":0,"x_max":758,"o":"m 213 349 q 266 225 213 277 q 389 173 319 173 q 513 225 460 173 q 566 349 566 277 q 542 436 566 395 q 477 500 517 477 q 389 523 435 523 q 303 500 343 523 q 237 436 262 477 q 213 349 213 395 m 563 689 q 758 345 758 606 l 757 -22 l 757 -73 q 662 -301 757 -206 q 544 -371 618 -345 q 407 -395 475 -395 l 369 -395 q 123 -301 214 -392 q 48 -191 61 -238 l 255 -71 q 298 -161 258 -124 q 391 -199 337 -199 q 469 -174 434 -199 q 519 -113 504 -151 l 519 -111 l 521 -107 q 524 -98 522 -102 q 527 -81 526 -90 l 527 -79 l 528 -77 l 528 -75 l 528 -71 l 529 -71 l 529 1 l 524 -2 l 518 -4 q 376 -32 450 -32 q 191 18 277 -32 q 52 153 104 66 q 0 346 0 239 q 31 495 0 427 q 113 616 60 563 q 234 694 165 666 q 376 722 303 722 q 563 689 502 722 z "},"h":{"ha":684,"x_min":0,"x_max":650,"o":"m 217 963 l 217 654 q 294 704 248 686 q 389 722 341 722 q 650 416 650 722 l 650 0 l 433 -1 l 433 401 q 405 495 433 464 q 325 526 376 526 q 246 495 275 526 q 217 401 217 464 l 217 0 l 0 -1 l 0 962 l 217 963 z "},"i":{"ha":259,"x_min":-7,"x_max":218,"o":"m 218 694 l 218 -1 l 1 -1 l 1 693 l 218 694 m 218 890 q 203 833 218 858 q 163 792 189 808 q 106 777 137 777 q 50 791 75 777 q 9 833 24 807 q -7 890 -7 860 q 8 947 -7 922 q 50 989 24 974 q 106 1004 75 1004 q 163 989 137 1004 q 203 947 188 974 q 218 890 218 922 z "},"j":{"ha":406,"x_min":-2,"x_max":370,"o":"m -2 -62 q 85 -54 54 -62 q 133 -20 117 -47 q 149 57 149 5 l 149 694 l 366 694 l 366 36 q 352 -96 366 -40 q 304 -186 337 -151 q 213 -240 271 -223 q 66 -258 155 -258 l -2 -62 m 370 890 q 355 833 370 858 q 315 792 340 808 q 258 777 289 777 q 201 791 227 777 q 161 833 176 807 q 145 890 145 860 q 160 947 145 922 q 201 989 176 974 q 258 1004 227 1004 q 315 989 289 1004 q 355 947 340 974 q 370 890 370 922 z "},"k":{"ha":777,"x_min":0,"x_max":743,"o":"m 0 0 l 0 962 l 217 962 l 217 431 l 220 431 l 444 694 l 699 694 l 448 396 l 743 0 l 472 0 l 217 340 l 217 0 l 0 0 z "},"l":{"ha":250,"x_min":0,"x_max":216,"o":"m 0 962 l 216 963 l 216 1 l 0 -1 l 0 962 z "},"m":{"ha":1043,"x_min":3,"x_max":1008,"o":"m 614 427 l 614 -1 l 397 -1 l 397 427 q 315 525 391 522 l 302 525 q 220 410 220 522 l 220 -1 l 3 -1 l 3 410 q 302 722 3 705 l 315 722 q 506 665 434 715 q 696 722 577 715 l 709 722 q 1008 410 1008 705 l 1008 -1 l 791 -1 l 791 410 q 709 525 791 522 l 696 525 q 614 427 620 522 z "},"n":{"ha":646,"x_min":0,"x_max":612,"o":"m 312 526 q 395 410 395 522 l 395 0 l 612 0 l 612 410 q 312 722 612 707 l 300 722 q 0 410 0 707 l 0 0 l 217 0 l 217 410 q 300 526 217 522 l 312 526 z "},"o":{"ha":829,"x_min":0,"x_max":795,"o":"m 397 -22 q 201 26 294 -22 q 55 160 109 75 q 0 351 0 245 q 32 499 0 431 q 119 618 64 568 q 248 696 176 669 q 397 723 321 723 q 548 696 475 723 q 676 618 619 670 q 764 499 732 567 q 795 351 795 431 q 764 203 795 271 q 676 83 733 136 q 548 5 618 32 q 397 -22 477 -22 m 216 351 q 271 227 216 279 q 397 174 324 174 q 525 227 471 174 q 579 351 579 279 q 554 439 579 399 q 487 503 529 479 q 397 526 446 526 q 309 503 351 526 q 241 439 267 479 q 216 351 216 399 z "},"p":{"ha":829,"x_min":0,"x_max":795,"o":"m 216 349 q 271 474 216 422 q 397 526 324 526 q 525 474 471 526 q 579 349 579 421 q 554 262 579 302 q 487 199 529 222 q 397 175 445 175 q 309 199 350 175 q 241 262 267 222 q 216 349 216 301 m 0 -267 l 216 -267 l 216 19 l 232 12 l 248 5 q 397 -21 321 -21 q 548 5 475 -21 q 676 83 620 32 q 764 202 732 134 q 795 349 795 271 q 764 497 795 430 q 676 616 733 564 q 548 694 618 669 q 397 722 477 722 q 201 673 294 722 q 55 541 109 625 q 0 354 1 458 l 0 -267 z "},"q":{"ha":829,"x_min":0,"x_max":795,"o":"m 579 349 q 554 262 579 301 q 487 199 529 222 q 398 175 446 175 q 309 199 351 175 q 241 262 267 222 q 216 349 216 302 q 271 474 216 421 q 398 526 324 526 q 525 474 471 526 q 579 349 579 422 m 795 354 q 741 541 795 458 q 594 673 686 625 q 398 722 502 722 q 248 694 319 722 q 119 616 177 669 q 31 497 62 564 q 0 349 0 430 q 32 202 0 271 q 119 83 63 134 q 248 5 176 32 q 398 -21 321 -21 q 548 5 475 -21 l 564 12 l 579 19 l 579 -267 l 795 -267 l 795 354 z "},"r":{"ha":390,"x_min":0,"x_max":356,"o":"m 356 718 q 312 722 334 722 l 300 722 q 0 411 0 707 l 0 0 l 217 0 l 217 411 q 300 526 217 523 l 312 526 q 356 513 339 525 l 356 718 z "},"s":{"ha":600,"x_min":0,"x_max":566,"o":"m 110 218 q 267 154 174 154 q 364 211 364 154 q 311 255 364 241 q 190 286 273 264 q 77 351 123 303 q 31 494 31 397 q 68 621 31 569 q 167 696 106 672 q 302 722 229 722 q 386 710 343 722 q 469 675 432 696 q 539 625 509 652 l 420 506 q 306 545 368 545 q 232 504 232 545 q 287 452 232 467 q 408 421 347 435 q 520 359 475 404 q 566 214 566 313 q 526 86 566 140 q 421 5 487 32 q 285 -22 355 -22 q 178 -13 226 -22 q 90 17 131 -4 q 0 73 47 38 l 110 218 z "},"t":{"ha":566,"x_min":5,"x_max":537,"o":"m 149 509 l 5 509 l 54 695 l 149 695 l 149 962 l 365 961 l 365 695 l 509 695 l 460 509 l 365 509 l 365 279 q 480 187 365 187 q 537 196 517 187 l 475 -20 q 441 -22 458 -22 q 280 9 345 -22 q 182 103 215 40 q 149 262 149 165 l 149 509 z "},"u":{"ha":646,"x_min":0,"x_max":612,"o":"m 300 176 q 217 290 217 178 l 217 694 l 0 694 l 0 290 q 300 -21 0 -5 l 312 -21 q 612 290 612 -5 l 612 694 l 395 694 l 395 290 q 312 176 395 178 l 300 176 z "},"v":{"ha":752,"x_min":0,"x_max":718,"o":"m 718 694 l 353 -28 l 0 692 l 220 694 l 355 386 l 488 694 l 718 694 z "},"w":{"ha":1043,"x_min":3,"x_max":1008,"o":"m 397 273 l 397 694 l 614 694 l 614 273 q 696 175 620 178 l 709 175 q 791 290 791 178 l 791 694 l 1008 694 l 1008 290 q 709 -22 1008 -5 l 696 -22 q 505 35 577 -15 q 315 -22 434 -15 l 302 -22 q 3 290 3 -5 l 3 694 l 220 694 l 220 290 q 302 175 220 178 l 315 175 q 397 273 391 178 z "},"x":{"ha":798,"x_min":0,"x_max":764,"o":"m 0 -1 l 255 360 l 17 692 l 255 694 l 381 501 l 516 694 l 750 693 l 499 357 l 764 1 l 505 0 l 373 201 l 230 0 l 0 -1 z "},"y":{"ha":704,"x_min":0,"x_max":670,"o":"m 454 -80 l 454 -80 l 454 -87 q 453 -90 453 -89 q 450 -106 452 -100 l 448 -111 l 447 -115 l 446 -119 l 445 -121 q 398 -179 429 -158 q 325 -202 365 -202 q 236 -167 273 -202 q 196 -80 199 -132 l 0 -195 q 71 -299 14 -241 q 303 -389 158 -386 l 339 -389 q 469 -366 404 -389 q 581 -299 540 -340 q 670 -82 670 -208 l 670 694 l 453 693 l 453 304 q 425 211 453 243 q 345 179 395 179 q 265 210 294 179 q 237 304 237 242 l 237 694 l 20 694 l 20 289 q 340 -17 20 -51 q 454 13 393 -12 l 454 -80 z "},"z":{"ha":702,"x_min":0,"x_max":668,"o":"m 363 196 l 668 196 l 616 0 l 0 0 l 307 513 l 56 513 l 99 694 l 659 694 l 363 196 z "},"ß":{"ha":767,"x_min":0,"x_max":733,"o":"m 0 -1 l 211 -1 l 210 656 l 210 712 l 211 712 l 211 719 q 212 722 212 721 q 215 738 212 732 l 219 753 q 264 811 235 790 q 336 834 296 834 q 471 703 463 827 q 300 565 484 565 l 300 406 l 310 406 l 319 406 q 336 407 330 406 l 371 407 q 473 388 435 407 q 510 313 510 369 q 476 229 510 256 q 389 201 441 201 q 303 224 338 201 q 281 239 292 231 l 281 14 q 390 -3 336 -3 q 517 14 458 -3 q 628 66 577 29 q 705 157 677 102 q 733 289 733 213 q 718 374 733 333 q 675 448 703 414 q 610 503 648 481 q 674 584 654 544 q 694 683 694 627 q 665 821 694 765 q 583 931 635 876 q 357 1021 499 1019 l 322 1021 q 196 998 259 1021 q 88 931 127 972 q 1 714 1 841 l 0 -1 z "},"Ё":{"ha":645,"x_min":0,"x_max":611,"o":"m 236 203 l 236 389 l 481 389 l 427 591 l 236 591 l 236 758 l 611 758 l 611 962 l 0 962 l 0 0 l 611 0 l 611 203 l 236 203 m 422 1061 q 483 1044 450 1044 q 547 1060 517 1044 q 592 1105 576 1076 q 608 1166 608 1133 q 572 1253 608 1217 q 483 1289 537 1289 q 423 1272 450 1289 q 379 1227 395 1253 q 362 1166 362 1199 q 378 1106 362 1135 q 422 1061 394 1078 m 63 1061 q 123 1044 90 1044 q 187 1060 157 1044 q 233 1105 216 1076 q 249 1166 249 1133 q 213 1253 249 1217 q 123 1289 178 1289 q 64 1272 91 1289 q 20 1227 36 1253 q 3 1166 3 1199 q 19 1106 3 1135 q 63 1061 35 1078 z "},"Ђ":{"ha":1025,"x_min":0,"x_max":0,"o":""},"Ѓ":{"ha":650,"x_min":0,"x_max":0,"o":""},"Є":{"ha":849,"x_min":0,"x_max":0,"o":""},"Ѕ":{"ha":659,"x_min":0,"x_max":0,"o":""},"І":{"ha":270,"x_min":0,"x_max":0,"o":""},"Ї":{"ha":640,"x_min":0,"x_max":0,"o":""},"Ј":{"ha":456,"x_min":0,"x_max":0,"o":""},"Љ":{"ha":1379,"x_min":0,"x_max":0,"o":""},"Њ":{"ha":1284,"x_min":0,"x_max":0,"o":""},"Ћ":{"ha":977,"x_min":0,"x_max":0,"o":""},"Ќ":{"ha":792,"x_min":0,"x_max":0,"o":""},"Ѝ":{"ha":883,"x_min":0,"x_max":0,"o":""},"Ў":{"ha":1018,"x_min":0,"x_max":0,"o":""},"Џ":{"ha":811,"x_min":0,"x_max":0,"o":""},"А":{"ha":1094,"x_min":0,"x_max":1060,"o":"m 435 349 l 530 519 l 625 349 l 435 349 m 817 0 l 1060 0 l 530 976 l 0 0 l 243 0 l 338 171 l 722 171 l 817 0 z "},"Б":{"ha":747,"x_min":0,"x_max":713,"o":"m 229 217 l 374 217 q 477 300 474 217 l 476 300 q 477 306 477 301 l 477 309 l 476 312 l 477 312 q 374 394 474 394 l 229 394 l 229 217 m 233 962 l 567 962 l 630 743 l 236 743 l 236 612 l 402 612 q 713 312 698 612 l 713 300 q 402 0 698 0 l 1 0 l 1 1 l 0 1 l 0 964 l 233 962 z "},"В":{"ha":736,"x_min":0,"x_max":703,"o":"m 248 774 l 248 579 l 310 579 q 397 606 368 579 q 426 679 426 631 q 389 752 426 730 q 301 774 352 774 l 248 774 m 0 962 l 283 962 q 478 939 389 962 q 620 859 565 916 q 673 710 673 803 q 638 587 673 640 q 543 509 603 534 l 543 505 q 607 469 577 492 q 658 415 635 446 q 691 348 679 385 q 703 268 703 310 q 613 74 703 147 q 340 0 523 0 l 0 0 l 0 962 m 248 390 l 248 189 l 313 189 q 455 288 455 189 q 417 370 455 349 q 310 390 380 390 l 248 390 z "},"Г":{"ha":650,"x_min":0,"x_max":616,"o":"m 616 743 l 236 743 l 236 0 l 0 1 l 0 962 l 553 962 l 616 743 z "},"Д":{"ha":1097,"x_min":0,"x_max":1063,"o":"m 655 216 l 655 737 l 457 737 l 457 607 q 385 216 439 319 l 655 216 m 890 217 l 1063 217 l 1063 -220 l 852 -220 l 852 -3 l 212 -3 l 212 -220 l 0 -220 l 0 217 l 116 217 q 231 697 209 269 l 231 959 l 887 959 l 887 958 l 890 958 l 890 217 z "},"Е":{"ha":645,"x_min":0,"x_max":611,"o":"m 611 0 l 0 0 l 0 962 l 611 962 l 611 758 l 236 758 l 236 591 l 427 591 l 481 389 l 236 389 l 236 203 l 611 203 l 611 0 z "},"Ж":{"ha":1326,"x_min":0,"x_max":1292,"o":"m 758 956 l 534 956 l 534 606 q 465 652 496 612 q 420 734 433 692 l 417 745 l 414 757 q 406 781 410 770 q 382 831 395 808 q 290 924 349 891 q 169 960 239 953 q 110 962 142 962 q 82 962 98 962 l 69 961 l 56 961 l 48 960 l 74 756 q 226 636 199 741 q 334 471 253 531 l 0 0 l 254 0 l 530 377 l 534 377 l 534 0 l 758 0 l 758 377 l 762 377 l 1038 0 l 1292 0 l 958 471 q 1066 636 1039 531 q 1218 756 1093 741 l 1244 960 l 1236 961 l 1223 961 l 1210 962 q 1182 962 1194 962 q 1123 960 1149 962 q 1002 924 1053 953 q 909 831 943 891 q 886 781 897 808 q 878 757 882 770 l 875 745 l 871 734 q 827 652 859 692 q 758 606 795 612 l 758 956 z "},"З":{"ha":736,"x_min":0,"x_max":703,"o":"m 4 802 q 152 939 61 893 q 350 985 242 985 q 504 951 435 985 q 617 854 574 918 q 659 703 659 788 q 637 598 659 643 q 568 513 616 555 q 640 455 609 490 q 686 376 669 420 q 703 286 703 332 q 672 147 703 205 q 587 51 640 87 q 467 -5 532 12 q 329 -22 400 -22 q 208 -3 267 -22 q 94 52 148 16 q 0 132 38 88 l 157 292 q 234 218 196 241 q 328 193 273 193 q 422 222 385 193 q 460 311 460 252 q 419 391 460 371 q 308 411 378 411 l 270 411 q 252 410 264 410 l 241 410 l 231 410 l 231 578 q 264 578 244 578 l 281 578 l 300 579 q 367 587 336 581 q 417 616 397 594 q 436 679 436 637 q 404 762 436 734 q 318 789 370 789 q 274 782 294 789 q 239 765 257 776 q 202 735 225 755 q 192 726 197 731 q 183 718 189 723 q 169 705 172 709 l 4 802 z "},"И":{"ha":883,"x_min":0,"x_max":849,"o":"m 0 962 l 3 0 l 612 498 l 612 3 l 849 3 l 849 977 l 236 519 l 236 963 l 0 962 z "},"Й":{"ha":883,"x_min":0,"x_max":849,"o":"m 0 962 l 3 0 l 612 498 l 612 3 l 849 3 l 849 977 l 236 519 l 236 963 l 0 962 m 526 1278 q 494 1219 519 1240 q 426 1197 467 1197 q 357 1219 383 1197 q 323 1278 330 1240 l 161 1278 q 195 1157 161 1210 q 287 1073 229 1102 q 422 1043 347 1043 q 609 1104 541 1043 q 688 1278 677 1164 l 526 1278 z "},"К":{"ha":792,"x_min":0,"x_max":758,"o":"m 224 956 l 0 956 l 0 0 l 224 0 l 224 377 l 229 377 l 505 0 l 758 0 l 425 471 q 532 636 505 531 q 684 756 559 741 l 710 960 l 702 961 l 689 961 l 676 962 q 648 962 661 962 q 589 960 616 962 q 468 924 519 953 q 376 831 410 891 q 353 781 363 808 q 345 757 349 770 l 341 745 l 338 734 q 293 652 325 692 q 224 606 262 612 l 224 956 z "},"Л":{"ha":902,"x_min":0,"x_max":868,"o":"m 386 726 l 386 294 q 372 163 386 218 q 322 73 357 107 q 226 18 287 35 q 71 0 165 0 l 0 196 q 91 204 58 196 q 142 238 124 211 q 159 315 159 264 l 159 962 l 865 962 l 865 961 l 868 961 l 868 1 l 633 0 l 633 1 l 632 1 l 632 726 l 386 726 z "},"М":{"ha":932,"x_min":0,"x_max":899,"o":"m 441 599 l 0 975 l 0 1 l 253 -1 l 254 447 l 441 261 l 644 454 l 644 1 l 899 -1 l 899 975 l 441 599 z "},"Н":{"ha":811,"x_min":0,"x_max":777,"o":"m 236 393 l 541 393 l 541 0 l 777 0 l 777 962 l 541 962 l 541 611 l 236 611 l 236 962 l 0 962 l 0 0 l 236 0 l 236 393 z "},"О":{"ha":1050,"x_min":0,"x_max":1017,"o":"m 509 765 q 372 725 435 765 q 273 619 309 686 q 236 481 236 553 q 273 342 236 408 q 372 236 311 275 q 509 196 435 196 q 644 236 582 196 q 744 342 706 275 q 781 481 781 409 q 744 619 781 553 q 645 725 707 685 q 509 765 581 765 m 509 985 q 763 918 646 985 q 948 734 880 850 q 1017 481 1017 618 q 948 228 1017 343 q 763 45 880 112 q 509 -22 646 -22 q 254 45 372 -22 q 68 228 136 113 q 0 481 0 343 q 68 734 0 618 q 254 918 136 849 q 509 985 372 985 z "},"П":{"ha":811,"x_min":0,"x_max":777,"o":"m 236 746 l 541 746 l 541 0 l 777 0 l 777 962 l 0 962 l 0 0 l 236 0 l 236 746 z "},"Р":{"ha":709,"x_min":0,"x_max":675,"o":"m 0 0 l 0 962 l 288 962 q 452 947 384 962 q 571 897 521 932 q 648 802 621 862 q 675 654 675 741 q 648 527 675 583 q 573 431 621 471 q 458 369 524 390 q 319 347 391 347 l 237 347 l 237 0 l 0 0 m 237 758 l 237 551 l 304 551 q 405 578 370 551 q 439 656 439 605 q 405 732 439 705 q 304 758 370 758 l 237 758 z "},"С":{"ha":849,"x_min":0,"x_max":815,"o":"m 660 292 q 602 237 633 258 q 475 197 543 197 q 348 237 406 197 q 255 343 290 277 q 220 481 220 410 q 254 620 220 553 q 347 726 289 686 q 475 766 407 766 q 602 726 543 766 q 659 673 629 708 l 814 834 q 712 918 769 883 q 475 985 604 985 q 237 918 347 985 q 64 735 127 850 q 0 481 0 620 q 64 229 0 344 q 237 46 127 114 q 475 -21 347 -21 q 712 46 604 -21 q 815 132 769 81 l 660 292 z "},"Т":{"ha":743,"x_min":0,"x_max":709,"o":"m 244 743 l 59 743 l 0 962 l 652 962 l 709 743 l 480 743 l 480 0 l 244 0 l 244 743 z "},"У":{"ha":1018,"x_min":0,"x_max":984,"o":"m 722 962 l 490 529 l 260 962 l 0 962 l 376 297 q 124 202 278 163 l 148 -8 q 307 -17 203 -38 q 640 281 485 18 l 984 962 l 722 962 z "},"Ф":{"ha":1041,"x_min":0,"x_max":1007,"o":"m 385 136 q 328 145 357 140 q 168 200 243 160 q 45 309 90 240 q 0 479 0 378 q 46 653 0 582 q 166 763 92 723 q 327 818 240 802 q 385 827 356 823 l 385 962 l 621 962 l 621 826 q 739 803 681 819 q 930 694 853 772 q 1007 479 1007 614 q 961 309 1007 378 q 839 200 916 240 q 678 145 762 160 q 621 136 650 140 l 621 0 l 385 1 l 385 136 m 621 664 l 621 298 q 635 302 628 300 q 722 362 690 319 q 754 477 754 404 q 621 664 754 624 m 385 298 l 385 664 q 252 477 252 624 q 283 362 252 404 q 371 302 317 318 q 385 298 378 300 z "},"Х":{"ha":960,"x_min":0,"x_max":926,"o":"m 0 -1 l 322 498 l 9 961 l 269 960 l 464 677 l 655 960 l 926 962 l 598 501 l 924 -1 l 663 -1 l 458 309 l 244 -1 l 0 -1 z "},"Ц":{"ha":922,"x_min":0,"x_max":888,"o":"m 676 -220 l 888 -220 l 888 101 l 777 101 l 777 962 l 541 962 l 541 216 l 236 216 l 236 962 l 0 962 l 0 0 l 676 0 l 676 -220 z "},"Ч":{"ha":719,"x_min":0,"x_max":685,"o":"m 456 -1 l 685 0 l 685 962 l 456 961 l 456 669 q 427 575 456 607 q 343 543 395 543 q 258 574 288 543 q 229 669 229 606 l 229 962 l 0 962 l 0 654 q 338 347 0 326 q 458 376 425 347 l 456 -1 z "},"Ш":{"ha":1082,"x_min":0,"x_max":1048,"o":"m 1048 0 l 1048 962 l 812 962 l 812 216 l 643 216 l 643 962 l 406 962 l 406 216 l 236 216 l 236 962 l 0 962 l 0 0 l 1048 0 z "},"Щ":{"ha":1199,"x_min":0,"x_max":1165,"o":"m 954 -220 l 1165 -220 l 1165 101 l 1048 101 l 1048 962 l 812 962 l 812 216 l 643 216 l 643 962 l 406 962 l 406 216 l 236 216 l 236 962 l 0 962 l 0 0 l 954 0 l 954 -220 z "},"Ъ":{"ha":991,"x_min":0,"x_max":957,"o":"m 243 962 l 243 964 l 476 962 l 481 962 l 480 743 l 480 612 l 646 612 q 957 312 941 612 l 957 300 q 646 0 941 0 l 244 0 l 244 1 l 243 1 l 243 743 l 59 743 l 0 962 l 243 962 m 476 217 l 625 217 q 729 306 729 217 q 625 394 729 394 l 476 394 l 476 217 z "},"Ы":{"ha":1042,"x_min":0,"x_max":1008,"o":"m 0 1 l 1 1 l 1 0 l 402 0 q 713 300 698 0 l 713 312 q 402 612 698 612 l 236 612 l 236 961 l 233 961 l 233 962 l 0 964 l 0 1 m 236 394 l 385 394 q 489 306 489 394 q 385 217 489 217 l 236 217 l 236 394 m 772 962 l 1008 962 l 1008 0 l 772 1 l 772 962 z "},"Ь":{"ha":747,"x_min":0,"x_max":713,"o":"m 0 1 l 1 1 l 1 0 l 402 0 q 713 300 698 0 l 713 312 q 402 612 698 612 l 236 612 l 236 961 l 233 961 l 233 962 l 0 964 l 0 1 m 236 394 l 385 394 q 489 306 489 394 q 385 217 489 217 l 236 217 l 236 394 z "},"Э":{"ha":849,"x_min":0,"x_max":815,"o":"m 578 384 q 560 343 570 363 q 467 237 526 277 q 340 197 409 197 q 214 237 272 197 q 155 292 182 258 l 0 132 q 103 46 46 81 q 340 -21 212 -21 q 578 46 469 -21 q 751 229 688 114 q 815 481 815 344 q 751 735 815 620 q 578 918 688 850 q 340 985 469 985 q 103 918 212 985 q 1 834 46 883 l 157 673 q 213 726 186 708 q 340 766 273 766 q 468 726 408 766 q 561 620 526 686 q 583 566 574 593 l 248 566 l 248 384 l 578 384 z "},"Ю":{"ha":1379,"x_min":0,"x_max":1345,"o":"m 701 725 q 602 619 638 686 q 565 481 565 553 q 602 342 565 408 q 701 236 640 275 q 838 196 764 196 q 973 236 911 196 q 1073 342 1035 275 q 1109 481 1109 409 q 1073 619 1109 553 q 974 725 1036 685 q 838 765 910 765 q 701 725 764 765 m 340 590 q 397 734 357 666 q 583 918 465 849 q 838 985 701 985 q 1092 918 975 985 q 1277 734 1209 850 q 1345 481 1345 618 q 1277 228 1345 343 q 1092 45 1209 112 q 838 -22 975 -22 q 583 45 701 -22 q 397 228 465 113 q 336 391 352 304 l 236 391 l 236 0 l 0 1 l 0 962 l 236 962 l 236 590 l 340 590 z "},"Я":{"ha":771,"x_min":0,"x_max":737,"o":"m 501 758 q 366 731 411 758 q 321 629 321 704 q 342 549 321 580 q 402 503 364 516 q 501 489 442 489 l 501 758 m 501 2 l 501 432 l 498 432 l 276 1 l 0 1 l 239 421 q 127 517 168 448 q 85 665 85 588 q 133 837 85 770 q 268 932 182 903 q 469 962 355 962 l 737 962 l 737 2 l 501 2 z "}}}
